Normalized EMG Linear Envelopes
nRows=207
nColumns=4

endheader
time	 med_gas_r	  soleus_r	 tib_ant_r	
12.5746	  0.019939	  0.056881	  0.019945	
12.6079	  0.019864	  0.058460	  0.020101	
12.6411	  0.019666	  0.058992	  0.019886	
12.6744	  0.019475	  0.058083	  0.019110	
12.7077	  0.019436	  0.055940	  0.018357	
12.7409	  0.019596	  0.053192	  0.018052	
12.7742	  0.019933	  0.050230	  0.018225	
12.8075	  0.020295	  0.047200	  0.018491	
12.8407	  0.020478	  0.044436	  0.018329	
12.874	  0.020339	  0.042305	  0.017992	
12.9073	  0.019866	  0.041061	  0.017942	
12.9405	  0.019273	  0.040830	  0.018367	
12.9738	  0.018760	  0.041547	  0.019106	
13.0071	  0.018414	  0.043140	  0.019666	
13.0403	  0.018241	  0.045390	  0.019902	
13.0736	  0.018235	  0.047955	  0.020127	
13.1069	  0.018433	  0.050306	  0.020578	
13.1401	  0.018801	  0.052028	  0.021206	
13.1734	  0.019175	  0.052996	  0.021593	
13.2067	  0.019421	  0.053099	  0.021709	
13.2399	  0.019481	  0.052648	  0.021868	
13.2732	  0.019392	  0.052074	  0.022168	
13.3065	  0.019243	  0.051616	  0.022332	
13.3397	  0.019104	  0.051232	  0.021994	
13.373	  0.019014	  0.050734	  0.021444	
13.4062	  0.018971	  0.050198	  0.020955	
13.4395	  0.018978	  0.049917	  0.020520	
13.4728	  0.019011	  0.050089	  0.019850	
13.506	  0.019038	  0.050649	  0.019142	
13.5393	  0.019012	  0.051520	  0.018704	
13.5726	  0.018889	  0.052431	  0.018506	
13.6058	  0.018640	  0.052999	  0.018288	
13.6391	  0.018289	  0.053156	  0.017669	
13.6724	  0.017937	  0.053117	  0.016942	
13.7056	  0.017668	  0.052901	  0.016516	
13.7389	  0.017529	  0.052596	  0.016502	
13.7722	  0.017478	  0.052367	  0.016685	
13.8054	  0.017468	  0.052412	  0.016705	
13.8387	  0.017536	  0.052762	  0.016032	
13.872	  0.017731	  0.053438	  0.014480	
13.9052	  0.018058	  0.054620	  0.012562	
13.9385	  0.018429	  0.056331	  0.010741	
13.9718	  0.018726	  0.058361	  0.009282	
14.005	  0.018915	  0.060372	  0.008277	
14.0383	  0.019007	  0.061888	  0.007671	
14.0716	  0.019115	  0.062562	  0.007285	
14.1048	  0.019415	  0.062602	  0.006997	
14.1381	  0.020039	  0.062599	  0.006843	
14.1714	  0.021074	  0.062750	  0.006857	
14.2046	  0.022579	  0.063214	  0.007085	
14.2379	  0.024691	  0.064587	  0.007571	
14.2712	  0.027588	  0.067797	  0.008314	
14.3044	  0.031298	  0.073518	  0.009315	
14.3377	  0.035714	  0.081977	  0.010535	
14.371	  0.040536	  0.093322	  0.011909	
14.4042	  0.045282	  0.107627	  0.013318	
14.4375	  0.049607	  0.124102	  0.014619	
14.4708	  0.053656	  0.141568	  0.015813	
14.504	  0.057964	  0.159143	  0.016943	
14.5373	  0.062820	  0.175569	  0.017975	
14.5706	  0.068130	  0.189397	  0.018791	
14.6038	  0.073463	  0.200880	  0.019388	
14.6371	  0.078330	  0.210686	  0.019945	
14.6704	  0.082517	  0.218586	  0.020612	
14.7036	  0.086177	  0.225010	  0.021368	
14.7369	  0.089508	  0.229939	  0.022091	
14.7702	  0.092864	  0.234139	  0.022687	
14.8034	  0.096718	  0.237525	  0.023111	
14.8367	  0.101496	  0.239054	  0.023377	
14.87	  0.107038	  0.237730	  0.023536	
14.9032	  0.112603	  0.234137	  0.023588	
14.9365	  0.116628	  0.231122	  0.023601	
14.9698	  0.117665	  0.230792	  0.023669	
15.003	  0.117090	  0.233593	  0.023804	
15.0363	  0.116529	  0.239357	  0.023945	
15.0696	  0.117366	  0.246377	  0.024006	
15.1028	  0.120182	  0.252889	  0.023990	
15.1361	  0.124968	  0.258868	  0.024071	
15.1694	  0.131442	  0.264846	  0.024404	
15.2026	  0.138431	  0.271535	  0.025007	
15.2359	  0.143909	  0.279677	  0.025749	
15.2692	  0.145562	  0.289763	  0.026502	
15.3024	  0.143968	  0.301767	  0.027209	
15.3357	  0.140411	  0.314350	  0.027639	
15.369	  0.135954	  0.324603	  0.027750	
15.4022	  0.131986	  0.332690	  0.027686	
15.4355	  0.129283	  0.341796	  0.027531	
15.4687	  0.128091	  0.353005	  0.027249	
15.502	  0.128481	  0.364897	  0.026974	
15.5353	  0.130759	  0.374069	  0.026817	
15.5685	  0.134986	  0.378600	  0.026824	
15.6018	  0.140689	  0.377964	  0.027124	
15.6351	  0.145981	  0.371350	  0.027830	
15.6683	  0.149398	  0.360147	  0.028944	
15.7016	  0.151316	  0.347198	  0.030384	
15.7349	  0.151610	  0.333703	  0.031859	
15.7681	  0.150247	  0.321670	  0.033071	
15.8014	  0.147699	  0.314936	  0.033868	
15.8347	  0.144518	  0.315517	  0.034318	
15.8679	  0.140799	  0.320941	  0.034524	
15.9012	  0.136890	  0.327842	  0.034556	
15.9345	  0.132950	  0.336788	  0.034658	
15.9677	  0.129055	  0.349402	  0.034932	
16.001	  0.124617	  0.364699	  0.035363	
16.0343	  0.119519	  0.379552	  0.035868	
16.0675	  0.114160	  0.390333	  0.036208	
16.1008	  0.109567	  0.394532	  0.036259	
16.1341	  0.106466	  0.390976	  0.036041	
16.1673	  0.104706	  0.381748	  0.035640	
16.2006	  0.104070	  0.369987	  0.035160	
16.2339	  0.104541	  0.359185	  0.034561	
16.2671	  0.106375	  0.351910	  0.033930	
16.3004	  0.109291	  0.348972	  0.033418	
16.3337	  0.112611	  0.348979	  0.033138	
16.3669	  0.115973	  0.351095	  0.033146	
16.4002	  0.119492	  0.354844	  0.033431	
16.4335	  0.123142	  0.360244	  0.033972	
16.4667	  0.126271	  0.364993	  0.034543	
16.5	  0.127582	  0.367794	  0.034925	
16.5333	  0.126549	  0.367291	  0.035077	
16.5665	  0.123427	  0.363574	  0.035074	
16.5998	  0.119343	  0.358658	  0.035041	
16.6331	  0.115546	  0.355952	  0.035037	
16.6663	  0.112781	  0.354262	  0.034969	
16.6996	  0.111585	  0.350207	  0.034824	
16.7329	  0.112134	  0.345181	  0.034697	
16.7661	  0.114055	  0.342135	  0.034569	
16.7994	  0.116476	  0.340890	  0.034397	
16.8327	  0.118578	  0.338932	  0.034155	
16.8659	  0.119907	  0.333651	  0.033822	
16.8992	  0.120152	  0.326933	  0.033569	
16.9325	  0.119195	  0.321648	  0.033662	
16.9657	  0.117783	  0.318312	  0.034184	
16.999	  0.116871	  0.316022	  0.034987	
17.0323	  0.116696	  0.315648	  0.035727	
17.0655	  0.116980	  0.316817	  0.036081	
17.0988	  0.117893	  0.318403	  0.036018	
17.1321	  0.119325	  0.319313	  0.035680	
17.1653	  0.120724	  0.319588	  0.035391	
17.1986	  0.121545	  0.320933	  0.035344	
17.2319	  0.121511	  0.323250	  0.035545	
17.2651	  0.120813	  0.324519	  0.035844	
17.2984	  0.119972	  0.324586	  0.036095	
17.3317	  0.119209	  0.325830	  0.036148	
17.3649	  0.118489	  0.328268	  0.035925	
17.3982	  0.117685	  0.329235	  0.035592	
17.4315	  0.116321	  0.327363	  0.035350	
17.4647	  0.114564	  0.324072	  0.035310	
17.498	  0.112798	  0.319523	  0.035419	
17.5312	  0.111052	  0.313987	  0.035573	
17.5645	  0.109142	  0.306688	  0.035657	
17.5978	  0.107790	  0.299773	  0.035782	
17.631	  0.107288	  0.295172	  0.035974	
17.6643	  0.107052	  0.290986	  0.036132	
17.6976	  0.106384	  0.283502	  0.036149	
17.7308	  0.105170	  0.273233	  0.035888	
17.7641	  0.103730	  0.264318	  0.035353	
17.7974	  0.102876	  0.260175	  0.034855	
17.8306	  0.103204	  0.259963	  0.034683	
17.8639	  0.104596	  0.259578	  0.034839	
17.8972	  0.106568	  0.257634	  0.035043	
17.9304	  0.108598	  0.256251	  0.035063	
17.9637	  0.109706	  0.256170	  0.034716	
17.997	  0.109537	  0.256460	  0.034147	
18.0302	  0.108328	  0.255657	  0.033534	
18.0635	  0.106667	  0.254349	  0.033082	
18.0968	  0.104691	  0.254088	  0.033012	
18.13	  0.102572	  0.254335	  0.033461	
18.1633	  0.100504	  0.253545	  0.034330	
18.1966	  0.098090	  0.249500	  0.035456	
18.2298	  0.094859	  0.240483	  0.036800	
18.2631	  0.090942	  0.228242	  0.038175	
18.2964	  0.086863	  0.214321	  0.039146	
18.3296	  0.083190	  0.198759	  0.039205	
18.3629	  0.080530	  0.180721	  0.038101	
18.3962	  0.079515	  0.161800	  0.036434	
18.4294	  0.080459	  0.144543	  0.034854	
18.4627	  0.082943	  0.130611	  0.033688	
18.496	  0.085934	  0.120911	  0.032939	
18.5292	  0.087213	  0.115096	  0.032322	
18.5625	  0.085123	  0.112219	  0.031663	
18.5958	  0.081218	  0.111391	  0.030674	
18.629	  0.077447	  0.111501	  0.029462	
18.6623	  0.075120	  0.111505	  0.028280	
18.6956	  0.074665	  0.110879	  0.027185	
18.7288	  0.075485	  0.110003	  0.026438	
18.7621	  0.075914	  0.109196	  0.026283	
18.7954	  0.073596	  0.108361	  0.026677	
18.8286	  0.068588	  0.107488	  0.027421	
18.8619	  0.062184	  0.106023	  0.028177	
18.8952	  0.055722	  0.103592	  0.028498	
18.9284	  0.050169	  0.100613	  0.027983	
18.9617	  0.046047	  0.098064	  0.026298	
18.995	  0.043475	  0.096404	  0.023848	
19.0282	  0.042349	  0.095319	  0.021173	
19.0615	  0.042684	  0.094156	  0.018631	
19.0948	  0.044751	  0.092904	  0.016414	
19.128	  0.048704	  0.091811	  0.014579	
19.1613	  0.054209	  0.091096	  0.013125	
19.1946	  0.060456	  0.090856	  0.012051	
19.2278	  0.065844	  0.090999	  0.011339	
19.2611	  0.067869	  0.091223	  0.010922	
19.2944	  0.064762	  0.091106	  0.010632	
19.3276	  0.058218	  0.090174	  0.010320	
19.3609	  0.050327	  0.088409	  0.009977	
19.3942	  0.042566	  0.085919	  0.009648	
19.4274	  0.035786	  0.082977	  0.009380	
